<svg width="582" height="168" viewBox="0 0 582 168" fill="none" xmlns="http://www.w3.org/2000/svg">
<path d="M41.2 157.4L0.2 8.79999L37.6 5.6L57.6 15.6L67.2 54.2L79.2 3.79999L115.4 0.599988L135.4 10.6L95.2 164.4L61.2 167.4L41.2 157.4ZM80.8 5.79999L63.4 79.8C62.4667 84.2 61.6667 88.6 61 93C60.3333 97.2667 59.8667 100.8 59.6 103.6C59.3333 106.4 59.2 107.8 59.2 107.8H58.6C58.6 107.8 58.4 106.467 58 103.8C57.7333 101 57.2667 97.5333 56.6 93.4C55.9333 89.2667 55.0667 85 54 80.6L36 7.79999L2.8 10.6L42.6 155.4L73.4 152.6L112.6 2.99999L80.8 5.79999ZM158.674 80.048C153.724 80.048 149.756 78.7253 146.77 76.08C143.783 73.4347 142.29 70.1067 142.29 66.096C142.29 62 143.783 58.6293 146.77 55.984C149.756 53.2533 153.724 51.888 158.674 51.888C163.538 51.888 167.463 53.2533 170.45 55.984C173.436 58.6293 174.93 62 174.93 66.096C174.93 70.1067 173.436 73.4347 170.45 76.08C167.463 78.7253 163.538 80.048 158.674 80.048ZM172.754 85.808V158H144.338V85.808H172.754ZM181.748 121.904C181.748 114.309 183.028 107.739 185.588 102.192C188.233 96.56 191.817 92.2933 196.34 89.392C200.862 86.4053 205.94 84.912 211.572 84.912C216.265 84.912 220.276 85.8933 223.604 87.856C227.017 89.7333 229.62 92.336 231.412 95.664V63.28H259.828V158H231.412V148.144C229.62 151.472 227.017 154.117 223.604 156.08C220.276 157.957 216.265 158.896 211.572 158.896C205.94 158.896 200.862 157.445 196.34 154.544C191.817 151.557 188.233 147.291 185.588 141.744C183.028 136.112 181.748 129.499 181.748 121.904ZM231.54 121.904C231.54 118.064 230.558 115.077 228.596 112.944C226.633 110.811 224.116 109.744 221.044 109.744C217.972 109.744 215.454 110.811 213.492 112.944C211.529 115.077 210.548 118.064 210.548 121.904C210.548 125.744 211.529 128.731 213.492 130.864C215.454 132.997 217.972 134.064 221.044 134.064C224.116 134.064 226.633 132.997 228.596 130.864C230.558 128.731 231.54 125.744 231.54 121.904ZM333.26 111.536C338.721 112.816 342.945 115.461 345.932 119.472C349.004 123.397 350.54 127.963 350.54 133.168C350.54 141.104 347.894 147.248 342.604 151.6C337.398 155.867 329.889 158 320.076 158H272.588V67.376H318.796C328.012 67.376 335.265 69.3813 340.556 73.392C345.846 77.4027 348.492 83.248 348.492 90.928C348.492 96.2187 347.084 100.699 344.268 104.368C341.537 107.952 337.868 110.341 333.26 111.536ZM301.004 102.704H312.012C314.572 102.704 316.449 102.192 317.644 101.168C318.924 100.144 319.564 98.5653 319.564 96.432C319.564 94.2133 318.924 92.592 317.644 91.568C316.449 90.4587 314.572 89.904 312.012 89.904H301.004V102.704ZM313.932 135.216C316.492 135.216 318.369 134.747 319.564 133.808C320.844 132.784 321.484 131.163 321.484 128.944C321.484 124.592 318.966 122.416 313.932 122.416H301.004V135.216H313.932ZM388.504 99.12C391.405 94.9387 394.946 91.6107 399.128 89.136C403.309 86.576 407.661 85.296 412.184 85.296V115.632H404.12C398.744 115.632 394.776 116.571 392.216 118.448C389.741 120.325 388.504 123.653 388.504 128.432V158H360.088V85.808H388.504V99.12ZM434.174 80.048C429.224 80.048 425.256 78.7253 422.27 76.08C419.283 73.4347 417.79 70.1067 417.79 66.096C417.79 62 419.283 58.6293 422.27 55.984C425.256 53.2533 429.224 51.888 434.174 51.888C439.038 51.888 442.963 53.2533 445.95 55.984C448.936 58.6293 450.43 62 450.43 66.096C450.43 70.1067 448.936 73.4347 445.95 76.08C442.963 78.7253 439.038 80.048 434.174 80.048ZM448.254 85.808V158H419.838V85.808H448.254ZM530.976 121.264C530.976 123.227 530.848 125.104 530.592 126.896H484.896C485.322 133.125 487.925 136.24 492.704 136.24C495.776 136.24 497.994 134.832 499.36 132.016H529.44C528.416 137.136 526.24 141.744 522.912 145.84C519.669 149.851 515.53 153.051 510.496 155.44C505.546 157.744 500.085 158.896 494.112 158.896C486.944 158.896 480.544 157.403 474.912 154.416C469.365 151.429 465.013 147.163 461.856 141.616C458.784 135.984 457.248 129.413 457.248 121.904C457.248 114.395 458.784 107.867 461.856 102.32C465.013 96.688 469.365 92.3787 474.912 89.392C480.544 86.4053 486.944 84.912 494.112 84.912C501.28 84.912 507.637 86.4053 513.184 89.392C518.816 92.2933 523.168 96.4747 526.24 101.936C529.397 107.397 530.976 113.84 530.976 121.264ZM502.176 114.48C502.176 112.091 501.408 110.299 499.872 109.104C498.336 107.824 496.416 107.184 494.112 107.184C489.077 107.184 486.133 109.616 485.28 114.48H502.176ZM581.563 80.688C580.027 80.5173 578.96 80.432 578.363 80.432C576.229 80.432 574.608 80.8587 573.499 81.712C572.389 82.48 571.621 83.8453 571.194 85.808H581.563V109.488H570.939V158H542.523V109.488H534.843V85.808H542.523C542.693 76.4213 545.637 69.168 551.355 64.048C557.157 58.8427 565.264 56.24 575.675 56.24C576.869 56.24 578.832 56.3253 581.563 56.496V80.688Z" fill="white"/>
</svg>
